<?xml version="1.0" encoding="UTF-8"?>
<svg version="1.1" xmlns="http://www.w3.org/2000/svg" width="500" height="500">
<path d="M0 0 C165 0 330 0 500 0 C500 165 500 330 500 500 C335 500 170 500 0 500 C0 335 0 170 0 0 Z " fill="#C554AA" transform="translate(0,0)"/>
<path d="M0 0 C6.05800534 3.72723048 11.06506713 8.43390611 13.41796875 15.26171875 C15.49564952 24.50381597 15.38453302 32.06744496 10.44921875 40.29296875 C9.05388466 42.64080543 9.05388466 42.64080543 9.35546875 46.44921875 C12.53431579 52.08537582 16.45113594 56.60917391 22.35546875 59.44921875 C27.28721111 60.57815433 32.05639314 60.82987046 37.10546875 60.88671875 C38.98818481 60.93747559 38.98818481 60.93747559 40.90893555 60.98925781 C46.15036534 60.83768499 49.89045421 60.60238346 54.09204102 57.29516602 C56.36937567 54.77781643 58.36274809 52.19455165 60.35546875 49.44921875 C68.42422396 40.20898589 77.7060483 34.36697445 88.35546875 28.44921875 C89.33644531 27.90007812 90.31742188 27.3509375 91.328125 26.78515625 C115.25561804 14.72895419 143.69920524 17.10318521 168.3581543 24.90917969 C180.149493 28.88074689 189.9373414 35.35293384 199.35546875 43.44921875 C200.02835938 43.97773438 200.70125 44.50625 201.39453125 45.05078125 C219.12849845 59.39339218 229.505466 82.49248105 233.35546875 104.44921875 C233.74382548 109.10521009 233.78635886 113.71668273 233.73046875 118.38671875 C233.72031738 119.61801514 233.71016602 120.84931152 233.69970703 122.11791992 C233.45104412 136.65698972 230.58211801 150.86977079 223.109375 163.56640625 C222.02805713 166.26689959 222.49863802 167.67835226 223.35546875 170.44921875 C225.3341262 172.99307721 225.3341262 172.99307721 227.93530273 175.45141602 C228.41016113 175.92364594 228.88501953 176.39587585 229.37426758 176.88241577 C230.94103145 178.43623157 232.52124982 179.97560194 234.1015625 181.515625 C235.19494834 182.59646337 236.28730586 183.67834291 237.37867737 184.76121521 C240.25142912 187.60738676 243.13510098 190.44220937 246.02209473 193.27392578 C250.64171061 197.8072443 255.24795523 202.35404815 259.84773445 206.90748405 C261.4550126 208.4943488 263.06895969 210.07419199 264.68370056 211.65345764 C265.67144507 212.62754263 266.65897009 213.60185025 267.64624023 214.57641602 C268.50926254 215.42293228 269.37228485 216.26944855 270.26145935 217.14161682 C273.7668747 221.00459051 274.88993804 224.01386903 274.72827148 229.32446289 C273.41250386 236.82356285 266.54583797 242.69105361 261.35546875 247.76171875 C260.65679687 248.46361328 259.958125 249.16550781 259.23828125 249.88867188 C250.17603443 258.85687651 250.17603443 258.85687651 243.04296875 259.01171875 C241.71845703 259.07552734 241.71845703 259.07552734 240.3671875 259.140625 C232.464588 257.32640955 226.4339551 249.73243486 221.0378418 244.07299805 C219.40188891 242.37777173 217.76570376 240.68276953 216.12931824 238.98796082 C215.27283377 238.09728598 214.4163493 237.20661114 213.53391075 236.28894615 C208.95391958 231.53929499 204.33461692 226.82798225 199.72070312 222.11132812 C193.8670377 216.12687062 188.0263681 210.13148912 182.23803711 204.08374023 C177.54335547 199.17892924 172.80162288 194.32364077 168.02991676 189.49375343 C166.22880585 187.65458334 164.44382133 185.79946554 162.67627525 183.92801476 C152.0367842 172.05195023 152.0367842 172.05195023 137.55499744 166.938344 C134.47496262 166.90272879 131.45675144 167.09749814 128.39118385 167.37854958 C120.23698395 167.66161992 112.41870273 163.61217011 106.41015625 158.41796875 C95.78602672 148.23819444 88.45120213 136.75486565 88.04296875 121.69921875 C88.13625605 114.98253341 88.34730198 106.45738552 93.35546875 101.44921875 C96.81446692 101.03167165 98.69294494 101.0277146 101.6640625 102.91796875 C102.36660156 103.58828125 103.06914062 104.25859375 103.79296875 104.94921875 C104.56640625 105.68398437 105.33984375 106.41875 106.13671875 107.17578125 C108.69048681 109.7924943 111.09067923 112.50214621 113.46484375 115.28125 C115.76512793 117.91897256 118.12706315 120.4792563 120.54296875 123.01171875 C121.36152344 123.87925781 122.18007812 124.74679688 123.0234375 125.640625 C125.12371611 127.70206397 125.12371611 127.70206397 127.296875 127.23730469 C131.00188918 125.81892402 133.41032942 122.90638704 136.16796875 120.13671875 C136.77833984 119.55470703 137.38871094 118.97269531 138.01757812 118.37304688 C138.58927734 117.80392578 139.16097656 117.23480469 139.75 116.6484375 C140.27440674 116.13112061 140.79881348 115.61380371 141.33911133 115.08081055 C142.5163625 113.50831029 142.5163625 113.50831029 142.36621094 111.60229492 C140.84763377 108.3674321 138.35849256 106.20748273 135.7890625 103.80078125 C134.65258916 102.7022424 133.51653418 101.60327061 132.38085938 100.50390625 C130.58675569 98.78428036 128.78827898 97.06978878 126.98168945 95.36328125 C125.23753398 93.70984567 123.51260949 92.0381513 121.7890625 90.36328125 C121.24535507 89.8599527 120.70164764 89.35662415 120.14146423 88.83804321 C117.54463499 86.29414501 116.40999737 84.83510918 115.89477539 81.18896484 C116.35546875 78.44921875 116.35546875 78.44921875 118.29296875 76.69921875 C131.3539582 71.36820265 143.27418298 73.49306831 156.35546875 77.44921875 C158.83203125 78.58203125 158.83203125 78.58203125 160.35546875 79.44921875 C160.35546875 80.10921875 160.35546875 80.76921875 160.35546875 81.44921875 C161.08894531 81.69671875 161.82242188 81.94421875 162.578125 82.19921875 C171.3536586 86.148826 177.53608066 95.7498674 181.16259766 104.36709595 C183.01295305 109.31299924 183.47852307 112.98147342 182.8855896 118.20205688 C182.24547579 124.39744122 182.23609459 129.5255525 186.03027344 134.68457031 C189.60785429 138.83051272 193.63876681 142.44795982 197.73046875 146.07421875 C199.11494671 147.37176136 200.49520004 148.67382705 201.87109375 149.98046875 C207.66664012 155.83897114 207.66664012 155.83897114 214.35546875 160.44921875 C214.72671875 159.24265625 214.72671875 159.24265625 215.10546875 158.01171875 C216.05327549 155.31046955 217.0713078 152.89391937 218.29296875 150.32421875 C222.98406515 139.77270458 223.9369487 129.33617265 223.85546875 117.88671875 C223.85132965 116.83215485 223.85132965 116.83215485 223.84710693 115.75628662 C223.6694393 91.19843953 215.72329858 70.21722899 198.35546875 52.44921875 C180.91292984 35.6848501 158.51487517 27.07196482 134.54296875 27.13671875 C133.36154297 27.12060547 132.18011719 27.10449219 130.96289062 27.08789062 C119.6425712 27.08168771 109.15733674 29.23746541 98.73046875 33.63671875 C98.01173584 33.93787598 97.29300293 34.2390332 96.55249023 34.54931641 C83.81098589 40.11220663 73.05433327 49.72164378 64.35546875 60.44921875 C65.15766846 60.43874512 65.95986816 60.42827148 66.78637695 60.41748047 C70.41354247 60.37596108 74.04065803 60.34990532 77.66796875 60.32421875 C78.93060547 60.30746094 80.19324219 60.29070312 81.49414062 60.2734375 C83.30688477 60.26376953 83.30688477 60.26376953 85.15625 60.25390625 C86.27169189 60.24343262 87.38713379 60.23295898 88.53637695 60.22216797 C91.35546875 60.44921875 91.35546875 60.44921875 94.35546875 62.44921875 C94.66796875 65.44921875 94.66796875 65.44921875 94.35546875 68.44921875 C91.41354091 71.39114659 88.23355902 70.80459272 84.28515625 70.86328125 C83.48892853 70.8826474 82.69270081 70.90201355 81.87234497 70.92196655 C79.32516241 70.98182349 76.7779348 71.02817154 74.23046875 71.07421875 C72.50518845 71.11239296 70.77992732 71.15144436 69.0546875 71.19140625 C64.82176999 71.28752984 60.58876326 71.37153783 56.35546875 71.44921875 C55.39816663 73.31948239 54.44607127 75.19241155 53.49609375 77.06640625 C52.96532227 78.10909668 52.43455078 79.15178711 51.88769531 80.22607422 C46.40644006 91.75627369 43.97615336 103.6189812 44.10546875 116.32421875 C44.11223633 117.28948486 44.11900391 118.25475098 44.12597656 119.24926758 C44.28849274 130.46949816 46.13210267 140.03431599 50.35546875 150.44921875 C50.95085449 150.46903809 51.54624023 150.48885742 52.15966797 150.50927734 C54.85039028 150.60438001 57.54032023 150.71411717 60.23046875 150.82421875 C61.16761719 150.85515625 62.10476562 150.88609375 63.0703125 150.91796875 C64.41416016 150.97597656 64.41416016 150.97597656 65.78515625 151.03515625 C66.61257324 151.06657715 67.43999023 151.09799805 68.29248047 151.13037109 C70.35546875 151.44921875 70.35546875 151.44921875 72.35546875 153.44921875 C72.10546875 157.01171875 72.10546875 157.01171875 71.35546875 160.44921875 C68.47130992 161.89129816 65.93825347 161.54316762 62.73046875 161.51171875 C61.54195313 161.50269531 60.3534375 161.49367188 59.12890625 161.484375 C58.21367187 161.47277344 57.2984375 161.46117187 56.35546875 161.44921875 C64.79868143 176.08796292 78.31719634 192.77204593 95.35546875 197.44921875 C95.6184375 196.7221875 95.88140625 195.99515625 96.15234375 195.24609375 C98.10146437 190.71502114 100.89392871 186.95393808 104.35546875 183.44921875 C107.66796875 182.26171875 107.66796875 182.26171875 110.35546875 182.44921875 C112.35546875 184.44921875 112.35546875 184.44921875 112.73046875 187.14453125 C112.26594818 191.23811876 110.59602854 193.97851798 108.35546875 197.32421875 C107.97390625 197.9171875 107.59234375 198.51015625 107.19921875 199.12109375 C106.26337 200.57165931 105.31105244 202.01157722 104.35546875 203.44921875 C106.46636543 203.93368684 108.57852354 204.41305595 110.6953125 204.87109375 C112.37934061 205.2370793 114.05977736 205.62038078 115.734375 206.02734375 C121.98062042 207.39584822 128.04896016 207.63076307 134.41796875 207.63671875 C135.26407715 207.63752441 136.11018555 207.63833008 136.98193359 207.63916016 C141.30512697 207.71845848 141.30512697 207.71845848 145.35546875 206.44921875 C147.47281309 206.14103386 149.60028019 205.90027025 151.73046875 205.69921875 C152.87257813 205.580625 154.0146875 205.46203125 155.19140625 205.33984375 C158.68998119 205.46078214 159.86801831 206.07204936 162.35546875 208.44921875 C161.60546875 213.19921875 161.60546875 213.19921875 159.35546875 215.44921875 C142.33504912 220.52548425 124.45907131 219.4368755 107.47949219 214.98925781 C103.79226095 214.05176868 100.0733729 213.25481886 96.35546875 212.44921875 C94.72988556 214.7196366 93.10498073 216.99053464 91.48046875 219.26171875 C91.02027344 219.90431641 90.56007812 220.54691406 90.0859375 221.20898438 C89.64121094 221.83095703 89.19648438 222.45292969 88.73828125 223.09375 C88.32980957 223.66456299 87.92133789 224.23537598 87.50048828 224.82348633 C85.11649147 227.71271932 85.11649147 227.71271932 84.54296875 231.19921875 C85.35031211 233.61185055 85.35031211 233.61185055 86.91796875 236.32421875 C89.6189203 242.51501363 89.48614867 250.46309294 87.6640625 256.88671875 C86.71788094 258.9136851 85.6624809 260.6357394 84.35546875 262.44921875 C83.94296875 263.0628125 83.53046875 263.67640625 83.10546875 264.30859375 C79.23486213 269.45474118 74.52204929 272.61219279 68.35546875 274.44921875 C60.48587821 275.48115866 53.04598699 275.59389764 46.28125 271.05859375 C39.5915119 265.46798098 34.34257575 258.80944427 32.9765625 250.0078125 C32.58738532 241.98574089 35.18308671 234.8818613 40.10546875 228.57421875 C44.76504797 223.55984924 51.06809491 220.7354875 57.87109375 220.28125 C64.37612241 220.23478551 70.41976297 220.48136586 76.35546875 223.44921875 C76.59007812 222.9284375 76.8246875 222.40765625 77.06640625 221.87109375 C78.78715406 218.63817362 80.87729969 215.68966226 82.98046875 212.69921875 C83.40070313 212.09722656 83.8209375 211.49523437 84.25390625 210.875 C85.28540012 209.39808832 86.32011454 207.92342681 87.35546875 206.44921875 C86.66582031 206.20945312 85.97617188 205.9696875 85.265625 205.72265625 C68.08940739 198.20662009 55.96334392 182.89454796 46.35546875 167.44921875 C45.69546875 166.45921875 45.03546875 165.46921875 44.35546875 164.44921875 C44.35546875 163.45921875 44.35546875 162.46921875 44.35546875 161.44921875 C35.11546875 161.44921875 25.87546875 161.44921875 16.35546875 161.44921875 C16.02546875 163.09921875 15.69546875 164.74921875 15.35546875 166.44921875 C12.38364061 172.83166844 8.87227674 178.39738024 2.35546875 181.44921875 C-5.70420547 184.24422504 -14.40325162 184.61041641 -22.44140625 181.6171875 C-30.50382512 177.34296189 -34.85307359 169.82359173 -37.64453125 161.44921875 C-38.84385075 152.5985445 -36.68396051 145.76762557 -31.64453125 138.44921875 C-29.19938036 135.93985177 -26.69177431 134.15879409 -23.64453125 132.44921875 C-22.59265625 131.83046875 -21.54078125 131.21171875 -20.45703125 130.57421875 C-12.90122049 128.34463525 -5.39879383 128.19292912 1.79296875 131.63671875 C3.33716969 132.53520844 4.86107054 133.47013027 6.35546875 134.44921875 C6.95230469 134.82175781 7.54914063 135.19429687 8.1640625 135.578125 C12.66578634 138.80005702 14.71966602 143.3108737 16.35546875 148.44921875 C16.35546875 149.43921875 16.35546875 150.42921875 16.35546875 151.44921875 C23.94546875 151.44921875 31.53546875 151.44921875 39.35546875 151.44921875 C38.73671875 149.38671875 38.11796875 147.32421875 37.48046875 145.19921875 C32.4210038 127.56062329 31.4753692 110.24600733 36.35546875 92.44921875 C36.66871094 91.23105469 36.98195313 90.01289063 37.3046875 88.7578125 C39.06085498 82.21209735 41.19350499 76.42684053 44.35546875 70.44921875 C43.66211426 70.54348145 42.96875977 70.63774414 42.25439453 70.73486328 C22.6684353 73.03699868 22.6684353 73.03699868 15.43798828 68.69873047 C10.3686291 64.43349593 6.13508194 59.50401098 2.1628418 54.21508789 C-0.04273811 52.06015618 -1.6249394 51.77732984 -4.64453125 51.44921875 C-4.64453125 52.10921875 -4.64453125 52.76921875 -4.64453125 53.44921875 C-23.66124509 54.36348384 -23.66124509 54.36348384 -29.046875 49.99609375 C-29.57410156 49.485625 -30.10132812 48.97515625 -30.64453125 48.44921875 C-31.26457031 47.918125 -31.88460937 47.38703125 -32.5234375 46.83984375 C-37.92891995 41.91961338 -41.18762073 37.30278482 -42.05859375 29.95703125 C-42.45823167 19.5033445 -40.41899492 12.33551427 -33.39453125 4.57421875 C-24.09588654 -3.86639652 -11.40694307 -5.30339115 0 0 Z " fill="#FCF8FB" transform="translate(129.64453125,108.55078125)"/>
<path d="M0 0 C9.87742305 -0.78669741 18.78050002 1.28063947 26.8125 7.25 C28.23404788 8.47067699 29.63107818 9.72058461 31 11 C31.6496875 11.58523437 32.299375 12.17046875 32.96875 12.7734375 C38.42159062 18.24938338 40.77118721 24.43504064 42 32 C41.86638221 33.37205581 41.68167199 34.73986587 41.45275879 36.09927368 C40.50501576 42.33725557 40.22088189 47.99995855 43.53442383 53.58742523 C48.50867136 60.03258212 54.45167169 65.58003684 60.37554741 71.1373744 C62.96179656 73.58484205 65.49123109 76.08969683 68.02697754 78.58926392 C72.82509632 83.30297582 77.66738185 87.96821995 82.52981615 92.61546862 C89.67616364 99.44876566 96.76354186 106.34283865 103.83837128 113.25008583 C104.35780823 113.75721717 104.87724519 114.26434851 105.41242266 114.78684747 C106.44778158 115.79782655 107.48297604 116.80897408 108.51800108 117.82029498 C111.54602399 120.77555507 114.59046195 123.71250167 117.65027618 126.63482451 C119.99092493 128.87444294 122.31704016 131.12910936 124.64648438 133.38037109 C125.49740158 134.18346207 126.34831879 134.98655304 127.22502136 135.8139801 C127.99070938 136.5590834 128.7563974 137.30418671 129.54528809 138.0718689 C130.21635338 138.71364767 130.88741867 139.35542645 131.57881927 140.01665306 C133.38524485 142.53763337 133.40730317 143.96092097 133 147 C131.3203125 149.23828125 131.3203125 149.23828125 129.125 151.3125 C128.04605469 152.35857422 128.04605469 152.35857422 126.9453125 153.42578125 C125 155 125 155 123 155 C122.79375 155.53625 122.5875 156.0725 122.375 156.625 C120.41016601 160.01880416 118.19569914 162.69851026 115 165 C111.5625 165.875 111.5625 165.875 108 165 C106.10552903 163.28205928 104.59550812 161.48171192 103.06640625 159.43359375 C101.24741146 157.29137493 99.4721119 155.63725344 97.33906555 153.8278656 C93.15783767 150.19936206 89.32043189 146.33081046 85.50854492 142.32055664 C84.05481722 140.8039452 82.60062861 139.28777546 81.14604187 137.77198792 C80.3867658 136.97939638 79.62748974 136.18680485 78.84520531 135.37019539 C73.92223805 130.24882485 68.95356536 125.17170442 63.99102306 120.08872318 C59.64811468 115.63539317 55.32422459 111.16628359 51.03735352 106.65893555 C46.868424 102.27745374 42.65376232 97.94495089 38.40480995 93.64108086 C36.80385406 92.00275913 35.21975143 90.34777673 33.6540432 88.67573738 C24.82153305 78.71458551 24.82153305 78.71458551 12.85879517 74.05465698 C8.8321482 73.92890149 4.94833032 74.31197228 0.96232033 74.84457207 C-3.31999555 75.18375803 -7.1358252 73.67290494 -11 72 C-12.5159375 71.443125 -12.5159375 71.443125 -14.0625 70.875 C-22.21975557 65.66824113 -27.36265278 58.86412349 -31 50 C-31.433125 49.030625 -31.86625 48.06125 -32.3125 47.0625 C-33.36078137 42.392883 -33.1526049 37.76466401 -33 33 C-29.25525735 34.54878812 -26.97738519 36.84688039 -24.19140625 39.75390625 C-23.27939453 40.69041016 -22.36738281 41.62691406 -21.42773438 42.59179688 C-19.99101092 44.07817271 -18.55768506 45.56753973 -17.12963867 47.06225586 C-15.74259225 48.50984701 -14.34214379 49.94455892 -12.94140625 51.37890625 C-11.69919312 52.67163452 -11.69919312 52.67163452 -10.43188477 53.99047852 C-7.79700468 56.16773963 -6.40923178 56.9522247 -3 57 C-1.01368904 55.94792436 -1.01368904 55.94792436 0.6875 54.1640625 C1.37328125 53.51469727 2.0590625 52.86533203 2.765625 52.19628906 C3.87164062 51.10912598 3.87164062 51.10912598 5 50 C6.19882812 48.87029785 6.19882812 48.87029785 7.421875 47.71777344 C9.97701065 45.29852815 12.49080431 42.8417976 15 40.375 C15.87011719 39.54226562 16.74023438 38.70953125 17.63671875 37.8515625 C18.45785156 37.04203125 19.27898437 36.2325 20.125 35.3984375 C20.87007813 34.67317871 21.61515625 33.94791992 22.3828125 33.20068359 C24.14106401 31.10903215 24.14106401 31.10903215 24.5703125 28.5793457 C23.74455793 24.84471513 21.44463774 22.86200185 18.75 20.33203125 C18.21729492 19.81114426 17.68458984 19.29025726 17.13574219 18.75358582 C15.43525989 17.09427384 13.7188493 15.45276098 12 13.8125 C10.28388156 12.15900837 8.57142067 10.50201592 6.86425781 8.83927917 C5.80170396 7.80602309 4.73345987 6.7785813 3.65917969 5.75752258 C2.40182472 4.54279361 1.19550073 3.27565121 0 2 C0 1.34 0 0.68 0 0 Z " fill="#B75AB8" transform="translate(261,192)"/>
<path d="M0 0 C2.01845456 1.8439484 3.6541439 3.5411337 5.375 5.625 C6.33115773 6.72828396 7.29080231 7.82855569 8.25390625 8.92578125 C8.71941895 9.45768066 9.18493164 9.98958008 9.66455078 10.53759766 C11.98373359 13.07725122 14.60747521 15.22188086 17.23828125 17.42578125 C19.56530913 19.50514319 21.46066486 21.84341809 23.4375 24.25 C25.16626636 26.18621833 27.02133723 27.82113462 29 29.5 C32.17813738 32.19660141 34.79517127 35.0325383 37.43359375 38.24609375 C39.77424124 40.8669185 42.45408332 43.04609341 45.12890625 45.31640625 C47.70954594 47.63844322 49.7795944 50.33551328 52 53 C53.29517178 54.16538421 54.6091722 55.31005353 55.9375 56.4375 C58.53982775 58.65069463 60.83265328 60.86020713 63 63.5 C65.7188563 66.80991201 68.78107335 69.46752485 72.04296875 72.23046875 C74.51682157 74.46730573 76.59761924 76.91736277 78.67578125 79.51953125 C80.12517606 81.26426365 80.12517606 81.26426365 83 83 C83.3125 86 83.3125 86 83 89 C81 91 81 91 78.8125 91.5625 C74.91020022 90.78204004 73.33714968 88.65390515 70.6875 85.79296875 C68.96306958 83.86750821 68.96306958 83.86750821 66.5 82.0625 C64.2535503 80.20917899 62.56299424 78.39745032 60.6875 76.1875 C58.28454783 73.36754963 55.82914039 70.89136238 53 68.5 C49.54963323 65.58045889 46.69550987 62.4128753 43.78125 58.96875 C41.38198831 56.31693444 38.69892353 54.09118965 35.97265625 51.78515625 C33.29590187 49.36282605 31.04377768 46.65376002 28.71484375 43.90234375 C27.07467898 42.08284433 25.39012506 40.55335445 23.5 39 C20.90472037 36.86713099 18.73310564 34.6268663 16.5625 32.0625 C13.58283896 28.54716956 10.34681463 25.62124917 6.8359375 22.6484375 C4.2662683 20.3412026 2.20875148 17.65050177 0 15 C-2.60350476 12.59026754 -5.29492476 10.29425774 -8 8 C-8.33 7.67 -8.66 7.34 -9 7 C-8.6875 3.5 -8.6875 3.5 -8 0 C-4.96630508 -1.51684746 -3.2291069 -0.91923481 0 0 Z " fill="#FBF7FB" transform="translate(291,247)"/>
<path d="M0 0 C5.54246407 2.85492696 10.00738908 7.02216723 12 13 C12.85268941 18.37518132 12.28221473 22.22952894 9.375 26.875 C6.62020766 30.53740374 4.52130896 32.72038426 0 34 C-5.89199194 34.69632632 -11.46298658 34.85141166 -16.49609375 31.3828125 C-20.98706919 27.25344807 -23.28531367 23.01005738 -23.5625 16.875 C-23.25704244 11.48408692 -21.40497843 8.31078867 -17.50390625 4.5625 C-12.14196685 -0.14423982 -6.94646962 -1.09951516 0 0 Z " fill="#E05883" transform="translate(122,118)"/>
<path d="M0 0 C4.89795012 2.5341568 8.56978497 6.35050743 11.046875 11.3046875 C11.81322519 18.17671295 11.17301652 22.72882058 7.046875 28.3046875 C2.94818585 32.19318747 -0.65798068 34.04485984 -6.265625 34.6796875 C-12.21198266 34.07497316 -16.95890732 31.90299402 -20.953125 27.3671875 C-24.23107643 22.20497147 -23.86023727 16.15298042 -22.953125 10.3046875 C-21.06513786 5.50570697 -17.47445246 2.25887585 -12.90625 -0.03515625 C-8.56600064 -1.50216054 -4.32407763 -1.53937164 0 0 Z " fill="#D05799" transform="translate(125.953125,247.6953125)"/>
<path d="M0 0 C5.28790932 1.77276653 9.06613634 5.34033418 12 10 C13.44791549 15.04653587 13.61207326 19.47909978 11.4375 24.3125 C8.90985951 28.66321221 5.52413704 31.73793148 1 34 C-4.51419784 34.58572663 -10.1847784 35.1262223 -15 32 C-19.13812956 28.39810728 -21.49049956 24.09902332 -22.37890625 18.6953125 C-22.65977303 13.31354257 -21.59992311 10.16833203 -18 6 C-12.11410037 0.45944652 -8.01195543 -0.85412738 0 0 Z " fill="#BE57B3" transform="translate(196,338)"/>
<path d="M0 0 C0.78375 0.04125 1.5675 0.0825 2.375 0.125 C3.58880846 5.46575724 3.58880846 5.46575724 2.625 8.4375 C1.375 10.125 1.375 10.125 -1.625 11.125 C-3.85184161 11.13852333 -6.07923921 11.09163325 -8.3046875 11.01171875 C-9.63928685 10.97958502 -10.97392511 10.94903562 -12.30859375 10.91992188 C-14.4051996 10.87058708 -16.49973942 10.8125106 -18.59521484 10.72729492 C-26.38963698 10.10485964 -26.38963698 10.10485964 -33.59008789 12.31591797 C-35.14741305 14.01871864 -35.14741305 14.01871864 -36.625 17.125 C-37.12386719 17.92421875 -37.62273437 18.7234375 -38.13671875 19.546875 C-41.06896791 25.35292318 -42.59247805 30.72785312 -43.625 37.125 C-43.79515625 37.76824219 -43.9653125 38.41148437 -44.140625 39.07421875 C-44.73021465 41.57046527 -44.92643622 44.00599139 -45.125 46.5625 C-45.33613384 49.27330774 -45.55832693 51.83866666 -46.17529297 54.48828125 C-46.64628577 57.24980254 -46.51671531 59.30615026 -46.1015625 62.06640625 C-45.9675 62.97970703 -45.8334375 63.89300781 -45.6953125 64.83398438 C-45.54835937 65.77564453 -45.40140625 66.71730469 -45.25 67.6875 C-45.11078125 68.63302734 -44.9715625 69.57855469 -44.828125 70.55273438 C-44.24227445 74.46301045 -43.63935513 78.30001295 -42.625 82.125 C-45.1 82.62 -45.1 82.62 -47.625 83.125 C-57.61634931 58.48613859 -54.83736765 34.33170199 -45.08984375 10.234375 C-42.66296684 5.08292427 -42.66296684 5.08292427 -40.625 3.125 C-37.80182304 2.72329669 -35.35208721 2.56732421 -32.52734375 2.5859375 C-31.73727432 2.57414459 -30.9472049 2.56235168 -30.13319397 2.55020142 C-27.60942899 2.51488787 -25.08649206 2.50576528 -22.5625 2.5 C-20.0351856 2.48367771 -17.50824327 2.46168985 -14.98109436 2.42837524 C-13.40863137 2.40868848 -11.83599737 2.39941649 -10.26341248 2.40145874 C-5.88294569 2.3585796 -3.84332005 0.18301524 0 0 Z " fill="#A8668A" transform="translate(226.625,175.875)"/>
<path d="M0 0 C1.7644043 -0.01740234 1.7644043 -0.01740234 3.56445312 -0.03515625 C15.22337215 0.00351346 25.30230796 2.73975037 35.9375 7.375 C35.9375 8.365 35.9375 9.355 35.9375 10.375 C37.2575 11.035 38.5775 11.695 39.9375 12.375 C38.9475 12.705 37.9575 13.035 36.9375 13.375 C35.60416667 12.70833333 34.27083333 12.04166667 32.9375 11.375 C30.60592508 11.02958149 28.27241639 10.69705743 25.9375 10.375 C24.968125 10.024375 23.99875 9.67375 23 9.3125 C19.8900454 8.36047308 17.29229857 8.27719418 14.05859375 8.375 C11.87655517 8.375 9.84554287 8.12469427 7.6875 7.8125 C-0.17639508 6.8584746 -7.61813384 7.78276535 -15.0625 10.375 C-17.33276739 10.96053204 -19.6036266 11.54377314 -21.875 12.125 C-27.36991011 13.66682077 -31.5723961 15.54890078 -36.09765625 19.0078125 C-38.0625 20.375 -38.0625 20.375 -40.41796875 21.20703125 C-44.03709137 22.80543253 -46.47693216 25.22355578 -49.3125 27.9375 C-49.85390625 28.44474609 -50.3953125 28.95199219 -50.953125 29.47460938 C-52.67395875 31.09004206 -54.39338305 32.70588305 -56.0625 34.375 C-58.41563555 34.44771741 -60.77083668 34.45870868 -63.125 34.4375 C-64.41535156 34.42847656 -65.70570313 34.41945312 -67.03515625 34.41015625 C-68.03417969 34.39855469 -69.03320312 34.38695312 -70.0625 34.375 C-64.54574843 21.52214262 -47.90309298 11.61377099 -35.5 6.4375 C-34.85281006 6.16719971 -34.20562012 5.89689941 -33.53881836 5.6184082 C-22.55211985 1.34211586 -11.73617477 -0.11613587 0 0 Z " fill="#AA648A" transform="translate(264.0625,134.625)"/>
<path d="M0 0 C4.40212664 0.9538583 8.79070177 1.92885061 13.1484375 3.0703125 C30.96601061 7.60584704 51.25558454 8.6822895 68 0 C68.495 2.475 68.495 2.475 69 5 C69.66 5 70.32 5 71 5 C70.42655063 7.86724686 70.1385485 8.8614515 68 11 C61.43930111 13.10437512 55.85875775 14 49 14 C47.4156448 14.20041416 45.83235187 14.40933873 44.25 14.625 C38.57146469 15.24825388 33.5359913 14.20689858 28 13 C26.906875 12.835 25.81375 12.67 24.6875 12.5 C21.67466521 11.9394726 18.89712789 10.98765724 16 10 C15.34 10 14.68 10 14 10 C14 9.34 14 8.68 14 8 C9.23402228 8.09726485 6.81496751 8.74551544 3.375 12.125 C2.23621694 13.40453153 1.11058778 14.6959208 0 16 C-0.48855469 16.46921875 -0.97710937 16.9384375 -1.48046875 17.421875 C-6.89585321 23.32956714 -6.42800519 32.41039726 -7 40 C-7.33 40 -7.66 40 -8 40 C-8.05607422 38.93072266 -8.05607422 38.93072266 -8.11328125 37.83984375 C-8.52430519 31.85178905 -9.3662084 27.37732451 -12 22 C-12.76538086 20.07910156 -12.76538086 20.07910156 -13 18 C-11.92016602 15.89355469 -11.92016602 15.89355469 -10.25390625 13.671875 C-9.66416016 12.87265625 -9.07441406 12.0734375 -8.46679688 11.25 C-7.83837891 10.425 -7.20996094 9.6 -6.5625 8.75 C-5.93794922 7.90953125 -5.31339844 7.0690625 -4.66992188 6.203125 C-3.12439372 4.12669022 -1.5676206 2.05977687 0 0 Z " fill="#9C6299" transform="translate(226,320)"/>
<path d="M0 0 C9.24 0 18.48 0 28 0 C30 4 30 4 30 7 C26.36388597 7.69259315 23.44788661 8.05357495 19.734375 7.609375 C15.83783459 7.22140777 12.82359587 7.10160687 9 8 C6.02752401 11.03358416 4.06347007 14.14575295 1.9375 17.7890625 C-2.3036254 24.81770177 -9.35932322 27.60894905 -17 30 C-17.99 30 -18.98 30 -20 30 C-20.804375 30.04125 -21.60875 30.0825 -22.4375 30.125 C-25.16074856 29.99215861 -26.67833503 29.37580146 -29 28 C-29 27.01 -29 26.02 -29 25 C-30.2375 24.938125 -31.475 24.87625 -32.75 24.8125 C-36.30550124 24.39643071 -36.84639125 24.15744896 -39.5 21.4375 C-39.995 20.633125 -40.49 19.82875 -41 19 C-40.18208984 19.2165625 -40.18208984 19.2165625 -39.34765625 19.4375 C-29.81710528 21.78348178 -21.23357691 21.74939183 -12 18 C-7.33321709 15.01551138 -5.43022974 11.61837833 -3.1875 6.75 C-2.135625 4.5225 -1.08375 2.295 0 0 Z " fill="#A4638B" transform="translate(146,270)"/>
<path d="M0 0 C0.99 0.33 1.98 0.66 3 1 C4.1875 4.0625 4.1875 4.0625 5 7 C5.66 7 6.32 7 7 7 C7.25127207 8.5590978 7.47504458 10.12264016 7.6875 11.6875 C7.81511719 12.55761719 7.94273437 13.42773438 8.07421875 14.32421875 C7.8988302 20.64743769 2.35767253 25.09151313 -1.75 29.4375 C-2.34554687 30.08009766 -2.94109375 30.72269531 -3.5546875 31.38476562 C-16.14971316 44.81128107 -16.14971316 44.81128107 -25.875 45.125 C-26.90625 45.08375 -27.9375 45.0425 -29 45 C-29 44.01 -29 43.02 -29 42 C-29.53625 41.9175 -30.0725 41.835 -30.625 41.75 C-33.8352431 40.73623902 -36.26292392 38.92839451 -39 37 C-38.67 36.34 -38.34 35.68 -38 35 C-37.34 35.33 -36.68 35.66 -36 36 C-30.75225439 36.6979325 -25.65243922 37.04210439 -21.1875 33.875 C-19.75330995 32.6260595 -18.36535588 31.32384168 -17 30 C-16.4534375 29.48469727 -15.906875 28.96939453 -15.34375 28.43847656 C-13.44271489 26.64115259 -11.56151305 24.82547092 -9.6875 23 C-9.07608154 22.40687012 -8.46466309 21.81374023 -7.8347168 21.20263672 C-3.70843922 17.06548697 -0.34550957 13.27082391 0.29296875 7.2265625 C0.25816406 6.36804688 0.22335937 5.50953125 0.1875 4.625 C0.16042969 3.75101562 0.13335937 2.87703125 0.10546875 1.9765625 C0.05326172 0.99816406 0.05326172 0.99816406 0 0 Z " fill="#9061A8" transform="translate(403,330)"/>
<path d="M0 0 C2.99933472 1.63887699 5.87299263 3.47695186 7.9765625 6.19921875 C7.9765625 6.85921875 7.9765625 7.51921875 7.9765625 8.19921875 C6.7596875 8.01359375 5.5428125 7.82796875 4.2890625 7.63671875 C-0.02280998 6.97897549 -3.44879493 7.152341 -7.15625 9.6171875 C-12.79334806 14.56490494 -12.79334806 14.56490494 -16.0234375 21.19921875 C-15.95220113 24.58294653 -15.57091189 27.86160378 -15.0234375 31.19921875 C-18.20073519 29.73739481 -20.36447261 28.35699663 -22.25390625 25.30078125 C-24.22478712 19.91837562 -24.22785434 13.27954147 -22.140625 7.94140625 C-17.22205977 0.41697865 -8.66533619 -3.42933189 0 0 Z " fill="#AA6889" transform="translate(126.0234375,247.80078125)"/>
<path d="M0 0 C0.99 0.33 1.98 0.66 3 1 C3.59732819 3.76264289 4 6.16032769 4 9 C2.31376408 10.9243304 0.62670521 12.67273482 -1.21484375 14.4375 C-1.74517715 14.95884521 -2.27551056 15.48019043 -2.82191467 16.01733398 C-4.52015867 17.68550607 -6.22790805 19.34346518 -7.9375 21 C-9.64265358 22.65735451 -11.34549154 24.316842 -13.04237366 25.98266602 C-14.09905143 27.01956444 -15.1606335 28.05149334 -16.2275238 29.07788086 C-18.57962848 31.3818385 -19.94185855 32.82557564 -21 36 C-22.65 36 -24.3 36 -26 36 C-26 35.34 -26 34.68 -26 34 C-26.78375 33.896875 -27.5675 33.79375 -28.375 33.6875 C-31 33 -31 33 -33 30 C-31.97116699 29.62238525 -30.94233398 29.24477051 -29.88232422 28.85571289 C-25.72801222 27.06773739 -22.99609715 24.52926606 -19.8828125 21.30859375 C-19.34018768 20.76268082 -18.79756287 20.21676788 -18.23849487 19.65431213 C-17.10285704 18.50831791 -15.97197289 17.35759493 -14.84570312 16.20239258 C-13.11793729 14.43025591 -11.37688949 12.67208865 -9.6328125 10.91601562 C-8.52786064 9.79765023 -7.42366627 8.67853581 -6.3203125 7.55859375 C-5.80058868 7.031483 -5.28086487 6.50437225 -4.74539185 5.96128845 C-2.04297208 3.22629141 -2.04297208 3.22629141 0 0 Z " fill="#9D5E90" transform="translate(287,220)"/>
<path d="M0 0 C4.03309859 1.4839452 6.58583036 3.37874554 9 7 C8.38253906 6.93039062 7.76507813 6.86078125 7.12890625 6.7890625 C-0.26174685 6.31660066 -4.42538453 8.22175817 -10 13 C-13.8570037 16.76057861 -14.7180059 19.64211203 -15 25 C-14.63112347 28.30714584 -14.63112347 28.30714584 -14 31 C-18.16390892 29.25920614 -19.40252563 27.29050944 -21.234375 23.28515625 C-22.51939219 19.44977332 -22.72430256 15.97627323 -22 12 C-17.3164797 2.63295941 -10.17421514 -1.12539898 0 0 Z " fill="#9E6395" transform="translate(196,338)"/>
<path d="M0 0 C1 3 1 3 0.25 5.125 C-1 7 -1 7 -4 8 C-6.22684161 8.01352333 -8.45423921 7.96663325 -10.6796875 7.88671875 C-12.01428685 7.85458502 -13.34892511 7.82403562 -14.68359375 7.79492188 C-16.7801996 7.74558708 -18.87473942 7.6875106 -20.97021484 7.60229492 C-28.76463698 6.97985964 -28.76463698 6.97985964 -35.96508789 9.19091797 C-37.52241305 10.89371864 -37.52241305 10.89371864 -39 14 C-39.74830078 15.19882813 -39.74830078 15.19882813 -40.51171875 16.421875 C-43.44396791 22.22792318 -44.96747805 27.60285312 -46 34 C-46.17015625 34.64324219 -46.3403125 35.28648437 -46.515625 35.94921875 C-47.10521465 38.44546527 -47.30143622 40.88099139 -47.5 43.4375 C-47.71113384 46.14830774 -47.93332693 48.71366666 -48.55029297 51.36328125 C-49.02128577 54.12480254 -48.89171531 56.18115026 -48.4765625 58.94140625 C-48.3425 59.85470703 -48.2084375 60.76800781 -48.0703125 61.70898438 C-47.92335937 62.65064453 -47.77640625 63.59230469 -47.625 64.5625 C-47.48578125 65.50802734 -47.3465625 66.45355469 -47.203125 67.42773438 C-46.61727445 71.33801045 -46.01435513 75.17501295 -45 79 C-45.99 79.495 -45.99 79.495 -47 80 C-47.65177969 77.81426438 -48.29614674 75.6263177 -48.9375 73.4375 C-49.29714844 72.21933594 -49.65679687 71.00117188 -50.02734375 69.74609375 C-54.97789184 50.67952499 -51.24981956 31.86562677 -44 14 C-43.34 14 -42.68 14 -42 14 C-41.95875 13.0925 -41.9175 12.185 -41.875 11.25 C-41 8 -41 8 -38.38330078 5.81689453 C-34.52144972 3.74300973 -32.33972844 3.5576738 -27.9921875 3.6796875 C-26.67605469 3.70160156 -25.35992187 3.72351563 -24.00390625 3.74609375 C-22.62756057 3.78764257 -21.25125748 3.83062549 -19.875 3.875 C-17.16401708 3.94799533 -14.45379977 4.00412751 -11.7421875 4.0546875 C-10.5444873 4.09062012 -9.34678711 4.12655273 -8.11279297 4.16357422 C-5.08462922 4.00444718 -3.47938577 3.69448055 -1 2 C-0.67 1.34 -0.34 0.68 0 0 Z " fill="#B85A8E" transform="translate(229,179)"/>
<path d="M0 0 C2.53932133 0.98899883 3.79445439 1.68458316 5.30078125 3.99609375 C8.38310756 11.43413987 8.90630453 17.87680658 6.0625 25.51953125 C5.37562968 27.04226215 4.6635566 28.55398179 3.921875 30.05078125 C2.84647606 32.32461206 2.32139419 34.50919503 2 37 C0.86800647 36.0919838 -0.25532363 35.17316174 -1.375 34.25 C-2.31472656 33.48429687 -2.31472656 33.48429687 -3.2734375 32.703125 C-5.08312318 30.91800519 -6.00117455 29.32050356 -7 27 C-6.05598958 25.6328125 -5.11197917 24.265625 -4.16796875 22.8984375 C-0.85087821 17.50677862 0.42693975 13.46094414 0.1875 7.125 C0.16719727 6.09246094 0.16719727 6.09246094 0.14648438 5.0390625 C0.1114837 3.35902999 0.05768954 1.6794065 0 0 Z " fill="#B85C7E" transform="translate(144,125)"/>
<path d="M0 0 C1.03382813 0.02707031 2.06765625 0.05414063 3.1328125 0.08203125 C9.7009808 0.33847107 16.2290065 0.9036574 22.25 3.75 C23.24 5.235 23.24 5.235 24.25 6.75 C20.77161199 6.33259344 17.61536786 5.88215433 14.3125 4.6875 C11.2025454 3.73547308 8.60479857 3.65219418 5.37109375 3.75 C3.18905517 3.75 1.15804287 3.49969427 -1 3.1875 C-8.86389508 2.2334746 -16.30563384 3.15776535 -23.75 5.75 C-26.02026739 6.33553204 -28.2911266 6.91877314 -30.5625 7.5 C-36.05741011 9.04182077 -40.2598961 10.92390078 -44.78515625 14.3828125 C-46.75 15.75 -46.75 15.75 -49.12109375 16.58203125 C-53.25639851 18.41926175 -56.12902129 21.69357837 -59.2890625 24.84960938 C-62.33776267 27.78496043 -64.46925702 29.42737047 -68.75 29.75 C-64.74506609 24.58574312 -60.69933309 21.07579236 -55.21484375 17.5234375 C-52.62805732 15.7757736 -52.62805732 15.7757736 -50.3359375 13.23046875 C-42.16440388 5.3922152 -28.52861131 3.03459696 -17.75 0.75 C-16.39648438 0.44255859 -16.39648438 0.44255859 -15.015625 0.12890625 C-9.99474057 -0.45366048 -5.04245301 -0.20442377 0 0 Z " fill="#BB598E" transform="translate(272.75,139.25)"/>
<path d="M0 0 C1.299375 -0.02126953 1.299375 -0.02126953 2.625 -0.04296875 C5 0.1875 5 0.1875 8 2.1875 C8 3.1775 8 4.1675 8 5.1875 C7.20335938 5.27386719 6.40671875 5.36023438 5.5859375 5.44921875 C-1.15114866 6.34257932 -5.37872509 7.0797751 -10 12.1875 C-12.09817283 15.54162136 -12.36975243 18.52370386 -12.625 22.4375 C-12.69976562 23.51515625 -12.77453125 24.5928125 -12.8515625 25.703125 C-12.90054688 26.52296875 -12.94953125 27.3428125 -13 28.1875 C-16.7800319 24.52940461 -18.16062785 22.71305899 -18.3125 17.4375 C-18.24901678 12.53518474 -17.31705101 9.94100508 -14 6.1875 C-9.58988944 1.95010917 -6.16605963 0.04587842 0 0 Z " fill="#B26C80" transform="translate(117,117.8125)"/>
<path d="M0 0 C5.75 1.875 5.75 1.875 8 3 C9.3734635 3.15004973 10.7528526 3.24838006 12.1328125 3.31640625 C12.93847656 3.35830078 13.74414062 3.40019531 14.57421875 3.44335938 C15.41597656 3.48267578 16.25773437 3.52199219 17.125 3.5625 C18.39923828 3.62727539 18.39923828 3.62727539 19.69921875 3.69335938 C21.79928223 3.79954236 23.89961948 3.90028497 26 4 C26 3.34 26 2.68 26 2 C28.125 1.625 28.125 1.625 31 2 C33.29739641 3.74322351 35.26333339 5.69638037 37 8 C37 8.66 37 9.32 37 10 C25.20465889 12.76061175 16.01321275 12.13631397 5 7 C5 6.34 5 5.68 5 5 C4.360625 4.731875 3.72125 4.46375 3.0625 4.1875 C1 3 1 3 0 0 Z " fill="#B36B85" transform="translate(99,158)"/>
<path d="M0 0 C0.66 0 1.32 0 2 0 C2.25127207 1.5590978 2.47504458 3.12264016 2.6875 4.6875 C2.81511719 5.55761719 2.94273437 6.42773438 3.07421875 7.32421875 C2.8988302 13.64743769 -2.64232747 18.09151313 -6.75 22.4375 C-7.34554687 23.08009766 -7.94109375 23.72269531 -8.5546875 24.38476562 C-21.14971316 37.81128107 -21.14971316 37.81128107 -30.875 38.125 C-31.90625 38.08375 -32.9375 38.0425 -34 38 C-34 37.01 -34 36.02 -34 35 C-34.53625 34.9175 -35.0725 34.835 -35.625 34.75 C-38.8352431 33.73623902 -41.26292392 31.92839451 -44 30 C-43.67 29.34 -43.34 28.68 -43 28 C-39.7 28.66 -36.4 29.32 -33 30 C-34.98 30.99 -34.98 30.99 -37 32 C-33.5118799 34.14653544 -31.06101215 34.60163143 -27 34 C-17.64677767 30.20860452 -11.36792004 22.5019332 -5 15 C-4.41476562 14.32710938 -3.82953125 13.65421875 -3.2265625 12.9609375 C-1.64265519 10.42870352 -1.26765393 8.19099463 -0.8125 5.25 C-0.65394531 4.26515625 -0.49539063 3.2803125 -0.33203125 2.265625 C-0.22246094 1.51796875 -0.11289062 0.7703125 0 0 Z " fill="#9859BA" transform="translate(408,337)"/>
<path d="M0 0 C0 0.99 0 1.98 0 3 C-3.63611403 3.69259315 -6.55211339 4.05357495 -10.265625 3.609375 C-14.16216541 3.22140777 -17.17640413 3.10160687 -21 4 C-23.97247599 7.03358416 -25.93652993 10.14575295 -28.0625 13.7890625 C-32.3036254 20.81770177 -39.35932322 23.60894905 -47 26 C-47.99 26 -48.98 26 -50 26 C-50.804375 26.04125 -51.60875 26.0825 -52.4375 26.125 C-55.16074856 25.99215861 -56.67833503 25.37580146 -59 24 C-59 23.34 -59 22.68 -59 22 C-57.92363281 22.13921875 -56.84726563 22.2784375 -55.73828125 22.421875 C-49.32926353 22.99192553 -43.49025202 23.49752712 -38.08203125 19.5390625 C-32.73198278 14.91746572 -29.06358712 10.39590996 -26 4 C-24.33249465 1.88522356 -23.40667984 1.09819625 -20.76342773 0.45996094 C-19.91208252 0.38551758 -19.0607373 0.31107422 -18.18359375 0.234375 C-17.25482422 0.14929688 -16.32605469 0.06421875 -15.36914062 -0.0234375 C-14.40169922 -0.09820312 -13.43425781 -0.17296875 -12.4375 -0.25 C-10.98053711 -0.38535156 -10.98053711 -0.38535156 -9.49414062 -0.5234375 C-2.28867813 -1.14433906 -2.28867813 -1.14433906 0 0 Z " fill="#B35A91" transform="translate(176,274)"/>
<path d="M0 0 C8.91 0 17.82 0 27 0 C24.75 6.75 24.75 6.75 22 10 C21.34 9.34 20.68 8.68 20 8 C17.59600517 7.98657889 17.59600517 7.98657889 14.875 8.25 C9.34550543 8.38096171 6.62615629 7.02699735 2.4609375 3.5078125 C1 2 1 2 0 0 Z " fill="#B6688B" transform="translate(147,179)"/>
<path d="M0 0 C3.47899158 1.39159663 4.48052501 2.63251488 6 6 C5.28714844 5.88140625 4.57429688 5.7628125 3.83984375 5.640625 C-3.01767062 4.71767556 -6.33836626 5.02481035 -12 9 C-12.66 9 -13.32 9 -14 9 C-17.88595394 15.66163532 -18.31525572 21.63456798 -17 29 C-18.32 28.34 -19.64 27.68 -21 27 C-21.62427746 14.34104046 -21.62427746 14.34104046 -19.3125 9.375 C-15.13680173 5.08644502 -12.08585436 2.10234317 -5.97265625 1.94921875 C-3.98172655 1.93872176 -1.99068091 1.96682198 0 2 C0 1.34 0 0.68 0 0 Z " fill="#C15C7B" transform="translate(125,121)"/>
<path d="M0 0 C11.46615258 -0.91323339 20.6800081 2.20511322 29.453125 9.609375 C29.96359375 10.06828125 30.4740625 10.5271875 31 11 C27.34491334 12.21836222 26.43514929 11.31965435 23.1015625 9.7734375 C18.81884683 8.19727077 13.3242445 7.22232273 8.93359375 8.69140625 C7 9 7 9 5.078125 7.63671875 C4.47484375 6.99347656 3.8715625 6.35023438 3.25 5.6875 C2.63640625 5.05199219 2.0228125 4.41648438 1.390625 3.76171875 C0 2 0 2 0 0 Z " fill="#A86794" transform="translate(261,192)"/>
<path d="M0 0 C0.5775 0.20625 1.155 0.4125 1.75 0.625 C0.62548273 3.5969385 -0.47293791 5.95940687 -2.25 8.625 C-5.875 9.3125 -5.875 9.3125 -9.25 9.625 C-9.58 11.605 -9.91 13.585 -10.25 15.625 C-13.83806317 12.23627367 -16.70684799 8.86358668 -19.25 4.625 C-19.25 3.965 -19.25 3.305 -19.25 2.625 C-18.35796875 2.57601563 -17.4659375 2.52703125 -16.546875 2.4765625 C-14.79117188 2.36441406 -14.79117188 2.36441406 -13 2.25 C-11.25976562 2.14558594 -11.25976562 2.14558594 -9.484375 2.0390625 C-6.01841809 1.59535304 -3.33969206 -0.55661534 0 0 Z " fill="#A2608E" transform="translate(205.25,267.375)"/>
<path d="M0 0 C1.7074998 1.28062485 3.37373596 2.61767557 5 4 C5 4.66 5 5.32 5 6 C3.783125 5.814375 2.56625 5.62875 1.3125 5.4375 C-2.99937248 4.77975674 -6.42535743 4.95312225 -10.1328125 7.41796875 C-15.76991056 12.36568619 -15.76991056 12.36568619 -19 19 C-18.92876363 22.38372778 -18.54747439 25.66238503 -18 29 C-19.94140625 28.1875 -19.94140625 28.1875 -22 27 C-23.8609818 21.04485825 -22.76741065 15.5436912 -20 10 C-16.65995148 6.08676519 -13.2023663 2.82833794 -8 2 C-6.58465222 1.93543121 -5.16662311 1.91388961 -3.75 1.9375 C-1.89375 1.9684375 -1.89375 1.9684375 0 2 C0 1.34 0 0.68 0 0 Z " fill="#B45E8A" transform="translate(129,250)"/>
<path d="M0 0 C1.0610924 4.33279395 1.34446273 7.01888311 -0.875 10.875 C-3 14 -3 14 -4 15 C-7.66344611 15.13568319 -10.50615721 15.16461426 -14 14 C-11.52460498 6.98638078 -8.20168896 -0.66500181 0 0 Z " fill="#9F6197" transform="translate(248,298)"/>
<path d="M0 0 C3.06463399 -0.16240455 6.12064274 -0.28104814 9.1875 -0.375 C10.05181641 -0.42527344 10.91613281 -0.47554688 11.80664062 -0.52734375 C18.1457553 -0.67307052 18.1457553 -0.67307052 20.72900391 1.36230469 C22.11328125 3.0234375 22.11328125 3.0234375 24 6 C15.03241789 6.8233264 6.78167325 7.55428477 -2 5 C-2 4.34 -2 3.68 -2 3 C-1.34 3 -0.68 3 0 3 C0 2.01 0 1.02 0 0 Z " fill="#9D6195" transform="translate(257,277)"/>
<path d="M0 0 C0.66 0 1.32 0 2 0 C1.42655063 2.86724686 1.1385485 3.8614515 -1 6 C-7.56069889 8.10437512 -13.14124225 9 -20 9 C-21.5843552 9.20041416 -23.16764813 9.40933873 -24.75 9.625 C-30.42625404 10.24800349 -35.46690341 9.21225903 -41 8 C-42.99907671 7.66117344 -44.99855726 7.32455828 -47 7 C-47 6.01 -47 5.02 -47 4 C-45.95779297 4.2165625 -45.95779297 4.2165625 -44.89453125 4.4375 C-37.67255828 5.75557872 -30.64462749 6.24482083 -23.3125 6.3125 C-22.44665283 6.32990234 -21.58080566 6.34730469 -20.6887207 6.36523438 C-14.32888962 6.3604113 -6.15144665 6.0475579 -1.34106445 1.39575195 C-0.67723755 0.70485474 -0.67723755 0.70485474 0 0 Z " fill="#A758A9" transform="translate(295,325)"/>
<path d="M0 0 C5.29407649 2.57579291 5.29407649 2.57579291 7 5 C6.67558396 6.66842534 6.34060811 8.33480481 6 10 C6.309375 11.0725 6.61875 12.145 6.9375 13.25 C8.18083404 17.6382378 8.18447196 21.48043708 8 26 C2.6215739 21.13003855 0.31890476 15.03613834 -0.25 7.8359375 C-0.25 5.21087052 -0.18231436 2.61823677 0 0 Z " fill="#A86C95" transform="translate(228,225)"/>
<path d="M0 0 C0.66 0.33 1.32 0.66 2 1 C2.38598945 8.97711521 1.51476303 16.22785545 -3 23 C-5.62187494 21.95125002 -6.79371361 21.35068687 -8.25 18.875 C-8.4975 18.25625 -8.745 17.6375 -9 17 C-8.1646875 15.8553125 -8.1646875 15.8553125 -7.3125 14.6875 C-4.24129934 10.11922662 -2.18511722 5.03293392 0 0 Z " fill="#AD6781" transform="translate(146,135)"/>
<path d="M0 0 C0.33 0.66 0.66 1.32 1 2 C0.38253906 1.93039062 -0.23492187 1.86078125 -0.87109375 1.7890625 C-8.26174685 1.31660066 -12.42538453 3.22175817 -18 8 C-21.8570037 11.76057861 -22.7180059 14.64211203 -23 20 C-22.63112347 23.30714584 -22.63112347 23.30714584 -22 26 C-24.62187494 24.95125002 -25.79371361 24.35068687 -27.25 21.875 C-27.4975 21.25625 -27.745 20.6375 -28 20 C-27.34 20 -26.68 20 -26 20 C-25.99742187 19.443125 -25.99484375 18.88625 -25.9921875 18.3125 C-25.65737965 11.70562513 -23.64716865 7.69121765 -19 3 C-13.47774321 -1.31005408 -6.67173075 -0.26726518 0 0 Z " fill="#AC59A0" transform="translate(204,343)"/>
<path d="M0 0 C6.13064153 1.83919246 11.68192101 4.454614 17 8 C18.99774701 8.24214826 18.99774701 8.24214826 21.16015625 8.125 C21.95357422 8.10953125 22.74699219 8.0940625 23.56445312 8.078125 C24.80098633 8.03945312 24.80098633 8.03945312 26.0625 8 C27.69895637 7.94905972 29.33571931 7.90696622 30.97265625 7.875 C31.69718994 7.85179687 32.42172363 7.82859375 33.16821289 7.8046875 C35 8 35 8 37 10 C25.20465889 12.76061175 16.01321275 12.13631397 5 7 C5 6.34 5 5.68 5 5 C4.360625 4.731875 3.72125 4.46375 3.0625 4.1875 C1 3 1 3 0 0 Z " fill="#C15B7F" transform="translate(99,158)"/>
<path d="M0 0 C0 0.33 0 0.66 0 1 C-1.010625 1.020625 -2.02125 1.04125 -3.0625 1.0625 C-8.22094129 1.80239764 -10.7620118 5.19787543 -14 9 C-14.48855469 9.46921875 -14.97710937 9.9384375 -15.48046875 10.421875 C-20.89585321 16.32956714 -20.42800519 25.41039726 -21 33 C-21.33 33 -21.66 33 -22 33 C-22.06058594 32.25234375 -22.12117187 31.5046875 -22.18359375 30.734375 C-22.26738281 29.74953125 -22.35117188 28.7646875 -22.4375 27.75 C-22.51871094 26.77546875 -22.59992188 25.8009375 -22.68359375 24.796875 C-22.95074584 22.43538247 -23.35371968 20.28098935 -24 18 C-23.34 18 -22.68 18 -22 18 C-21.75121094 17.11699219 -21.50242188 16.23398437 -21.24609375 15.32421875 C-19.94207765 11.84547988 -18.42848975 9.65433127 -16.0625 6.8125 C-15.37285156 5.97332031 -14.68320313 5.13414062 -13.97265625 4.26953125 C-9.23834642 -1.17726878 -7.18174798 -2.71310479 0 0 Z " fill="#A75EA1" transform="translate(240,327)"/>
<path d="M0 0 C1.08333427 3.25000281 0.92291149 5.05324123 -0.25 8.25 C-0.53101563 9.02859375 -0.81203125 9.8071875 -1.1015625 10.609375 C-1.54628906 11.79273438 -1.54628906 11.79273438 -2 13 C-2.27585937 13.76828125 -2.55171875 14.5365625 -2.8359375 15.328125 C-4.83757062 20.83757062 -4.83757062 20.83757062 -6 22 C-6.36760731 24.32817964 -6.70241581 26.6618385 -7 29 C-8.65 27.35 -10.3 25.7 -12 24 C-11.34 24 -10.68 24 -10 24 C-9.72736328 23.14728516 -9.72736328 23.14728516 -9.44921875 22.27734375 C-7.8603058 17.39652909 -6.08695115 12.69564008 -4 8 C-3.45762488 6.70863066 -2.91594619 5.41696857 -2.375 4.125 C-1 1 -1 1 0 0 Z " fill="#A35BAB" transform="translate(366,256)"/>
<path d="M0 0 C2.57576476 0.95671263 4.84246059 1.89342922 7.125 3.4375 C17.25895038 8.94508173 28.76482801 8.66236271 40 9 C40 9.33 40 9.66 40 10 C34.06 10 28.12 10 22 10 C22 10.99 22 11.98 22 13 C15.52443609 12.38909774 15.52443609 12.38909774 13.0625 10.5625 C12 9 12 9 12 7 C11.071875 6.855625 10.14375 6.71125 9.1875 6.5625 C6 6 6 6 3 5 C1.3125 2.4375 1.3125 2.4375 0 0 Z " fill="#B683AE" transform="translate(235,267)"/>
<path d="M0 0 C6.93 0 13.86 0 21 0 C20.67 1.32 20.34 2.64 20 4 C17.56242587 4.02698422 15.12515085 4.04683099 12.6875 4.0625 C11.99720703 4.07087891 11.30691406 4.07925781 10.59570312 4.08789062 C7.4516975 4.10307906 5.00579981 4.00193327 2 3 C2 2.34 2 1.68 2 1 C1.34 0.67 0.68 0.34 0 0 Z " fill="#A85F81" transform="translate(152,180)"/>
<path d="M0 0 C1.5703125 1.6015625 1.5703125 1.6015625 3 4 C2.11699557 14.35523377 -1.69204463 22.00606869 -8.8671875 29.265625 C-11.15014218 31.12209364 -13.22871513 32.05370761 -16 33 C-16.33 32.34 -16.66 31.68 -17 31 C-16.41992188 30.68289063 -15.83984375 30.36578125 -15.2421875 30.0390625 C-8.79261033 26.18634478 -5.05443963 21.88339789 -2 15 C-1.14443883 11.58851709 -0.76400378 8.18575478 -0.4375 4.6875 C-0.35371094 3.80449219 -0.26992187 2.92148437 -0.18359375 2.01171875 C-0.09271484 1.01591797 -0.09271484 1.01591797 0 0 Z " fill="#A659A6" transform="translate(223,355)"/>
<path d="M0 0 C0.66 0.33 1.32 0.66 2 1 C1.19256348 1.80219971 0.38512695 2.60439941 -0.44677734 3.4309082 C-3.44231669 6.40834497 -6.43454332 9.38909203 -9.42578125 12.37084961 C-10.72077788 13.66081807 -12.01667069 14.9498875 -13.31347656 16.23803711 C-15.17749689 18.08992561 -17.03826861 19.94502511 -18.8984375 21.80078125 C-19.76884171 22.66344353 -19.76884171 22.66344353 -20.65682983 23.54353333 C-23.04853677 25.93490598 -25.11759938 28.17639907 -27 31 C-28.32 29.68 -29.64 28.36 -31 27 C-29.96738037 26.61932373 -28.93476074 26.23864746 -27.87084961 25.84643555 C-23.87481824 24.12696688 -21.05222113 21.56894538 -18.06640625 18.45703125 C-17.5436058 17.92857101 -17.02080536 17.40011078 -16.48216248 16.8556366 C-14.83255028 15.18383072 -13.19748501 13.4986009 -11.5625 11.8125 C-10.43908779 10.66900083 -9.314747 9.52641314 -8.18945312 8.38476562 C-5.44879117 5.60026257 -2.7210769 2.80363963 0 0 Z " fill="#AB739F" transform="translate(285,223)"/>
<path d="M0 0 C-0.86625 0.515625 -1.7325 1.03125 -2.625 1.5625 C-7.61465598 4.9284437 -11.38468925 8.66181917 -12.9375 14.5625 C-12.99760911 17.86850109 -12.70786561 20.77527888 -12 24 C-13.32 23.34 -14.64 22.68 -16 22 C-15.58817166 14.01905076 -14.98432107 8.3573612 -9.5 2.1875 C-6.08632625 -0.79946453 -4.22775884 -1.31206309 0 0 Z " fill="#C15B8F" transform="translate(123,255)"/>
<path d="M0 0 C-6.75 4 -6.75 4 -9 4 C-12.88595394 10.66163532 -13.31525572 16.63456798 -12 24 C-13.32 23.34 -14.64 22.68 -16 22 C-15.61207787 14.60272637 -15.14606188 8.34456165 -10.6875 2.1875 C-7.12828952 -0.3171296 -4.14878662 -1.38292887 0 0 Z " fill="#CF587B" transform="translate(120,126)"/>
<path d="M0 0 C0.66 0 1.32 0 2 0 C2.33 2.64 2.66 5.28 3 8 C1.375 9.625 1.375 9.625 -1 11 C-4.1875 10.375 -4.1875 10.375 -7 9 C-7.33 8.01 -7.66 7.02 -8 6 C-7.05125 5.7525 -6.1025 5.505 -5.125 5.25 C-1.91306809 4.3142923 -1.91306809 4.3142923 -0.625 1.875 C-0.41875 1.25625 -0.2125 0.6375 0 0 Z " fill="#955EA9" transform="translate(375,332)"/>
<path d="M0 0 C0.66 0.33 1.32 0.66 2 1 C2 1.99 2 2.98 2 4 C-1.61317313 4.68822345 -4.67485265 5.0241129 -8.37109375 4.75 C-12.08177218 4.49869479 -15.32979163 4.3685663 -19 5 C-21.91978576 7.60895342 -23.50322879 10.4077491 -25 14 C-25.33 13.34 -25.66 12.68 -26 12 C-25.0390625 10.08984375 -25.0390625 10.08984375 -23.625 7.9375 C-23.16351563 7.22464844 -22.70203125 6.51179688 -22.2265625 5.77734375 C-21 4 -21 4 -20 3 C-18.58429877 2.91348389 -17.164405 2.89295096 -15.74609375 2.90234375 C-14.46508789 2.90717773 -14.46508789 2.90717773 -13.15820312 2.91210938 C-12.26037109 2.92048828 -11.36253906 2.92886719 -10.4375 2.9375 C-9.53580078 2.94201172 -8.63410156 2.94652344 -7.70507812 2.95117188 C-5.46998686 2.96299775 -3.23502563 2.9794778 -1 3 C-0.67 2.01 -0.34 1.02 0 0 Z " fill="#BA5B98" transform="translate(174,273)"/>
<path d="M0 0 C0.99 0.33 1.98 0.66 3 1 C1.68 1.99 0.36 2.98 -1 4 C-0.67 2.68 -0.34 1.36 0 0 Z M-5 7 C-5 10 -5 10 -6.14575195 11.51806641 C-6.67128662 12.04062012 -7.19682129 12.56317383 -7.73828125 13.1015625 C-8.31126953 13.67390625 -8.88425781 14.24625 -9.47460938 14.8359375 C-10.08111328 15.42632812 -10.68761719 16.01671875 -11.3125 16.625 C-12.20485352 17.5221875 -12.20485352 17.5221875 -13.11523438 18.4375 C-17.59926811 22.8664227 -17.59926811 22.8664227 -21 24 C-20.8125 22.1875 -20.8125 22.1875 -20 20 C-19.2678125 19.566875 -18.535625 19.13375 -17.78125 18.6875 C-14.58503763 16.74822508 -12.29281153 14.48728651 -9.6875 11.8125 C-8.36298828 10.46091797 -8.36298828 10.46091797 -7.01171875 9.08203125 C-6.34785156 8.39496094 -5.68398438 7.70789063 -5 7 Z " fill="#9E56C5" transform="translate(407,349)"/>
<path d="M0 0 C3.78761413 5.6814212 3.15705842 10.49263386 2 17 C1.11119303 19.44515673 0.07619859 21.72122241 -1.078125 24.05078125 C-2.15352394 26.32461206 -2.67860581 28.50919503 -3 31 C-4.32 29.68 -5.64 28.36 -7 27 C-6.01 26.34 -5.02 25.68 -4 25 C1.40272873 17.59157599 0.38290527 8.66854988 0 0 Z " fill="#C95B84" transform="translate(149,131)"/>
<path d="M0 0 C0.87736816 0.05329468 0.87736816 0.05329468 1.77246094 0.10766602 C4.43130849 0.2656043 7.09060123 0.41414511 9.75 0.5625 C10.67039062 0.61857422 11.59078125 0.67464844 12.5390625 0.73242188 C13.42851562 0.78076172 14.31796875 0.82910156 15.234375 0.87890625 C16.45979004 0.94960327 16.45979004 0.94960327 17.70996094 1.02172852 C19.97882075 1.00020095 21.83320921 0.64612135 24 0 C24.66 0.99 25.32 1.98 26 3 C17.03241789 3.8233264 8.78167325 4.55428477 0 2 C0 1.34 0 0.68 0 0 Z " fill="#AA5BA1" transform="translate(255,280)"/>
<path d="M0 0 C0.66 0 1.32 0 2 0 C3.54296875 1.57421875 3.54296875 1.57421875 5.1875 3.6875 C5.73792969 4.37199219 6.28835937 5.05648437 6.85546875 5.76171875 C8.3432828 8.67133462 7.80736798 9.88188917 7 13 C6.9340265 15.10323534 6.91437755 17.20835724 6.9375 19.3125 C6.95103516 20.91544922 6.95103516 20.91544922 6.96484375 22.55078125 C6.97644531 23.35902344 6.98804688 24.16726562 7 25 C6.67 25 6.34 25 6 25 C5.96261719 24.32195312 5.92523438 23.64390625 5.88671875 22.9453125 C5.30955164 14.77443692 3.83813295 7.29411413 0 0 Z " fill="#CB7C96" transform="translate(138,115)"/>
<path d="M0 0 C0.66 0.33 1.32 0.66 2 1 C1.01 1.66 0.02 2.32 -1 3 C-0.67 2.01 -0.34 1.02 0 0 Z M-4 4 C-3.34 4.33 -2.68 4.66 -2 5 C-3.65 6.32 -5.3 7.64 -7 9 C-5.125 5.125 -5.125 5.125 -4 4 Z M-14 14 C-13.34 14.33 -12.68 14.66 -12 15 C-12.99 15.66 -13.98 16.32 -15 17 C-14.67 16.01 -14.34 15.02 -14 14 Z M-19 19 C-18.01 19.495 -18.01 19.495 -17 20 C-17.99 20.495 -17.99 20.495 -19 21 C-19 20.34 -19 19.68 -19 19 Z M-21 21 C-20.34 21.33 -19.68 21.66 -19 22 C-19.33 22.99 -19.66 23.98 -20 25 C-21.65 25 -23.3 25 -25 25 C-24 23 -24 23 -21 21 Z " fill="#A85B99" transform="translate(286,231)"/>
<path d="M0 0 C0.33 0 0.66 0 1 0 C1.0809313 2.60478883 1.14045434 5.20706653 1.1875 7.8125 C1.21263672 8.55048828 1.23777344 9.28847656 1.26367188 10.04882812 C1.33834499 15.54974762 1.33834499 15.54974762 -0.51171875 18.01171875 C-1.24841797 18.50091797 -1.24841797 18.50091797 -2 19 C-2.05428973 16.77110504 -2.09292338 14.54182529 -2.125 12.3125 C-2.15980469 10.45044922 -2.15980469 10.45044922 -2.1953125 8.55078125 C-2.01032021 5.18762143 -1.45767895 3.0014413 0 0 Z " fill="#A559A8" transform="translate(369,226)"/>
<path d="M0 0 C0.66 0 1.32 0 2 0 C2.16987681 1.87471188 2.33574776 3.74978695 2.5 5.625 C2.5928125 6.66914063 2.685625 7.71328125 2.78125 8.7890625 C2.99124355 11.87146788 3.03709727 14.91165229 3 18 C1.68 18 0.36 18 -1 18 C-0.505 9.09 -0.505 9.09 0 0 Z " fill="#AB5BA3" transform="translate(317,225)"/>
<path d="M0 0 C3.63 0.66 7.26 1.32 11 2 C9.02 2.99 9.02 2.99 7 4 C11.07341667 6.50671795 14.76459729 6.4706111 19.375 5.5 C19.91125 5.335 20.4475 5.17 21 5 C20 6.5 20 6.5 18 8 C11.80125415 8.85499943 8.15752729 7.45532863 2.78515625 4.38671875 C1 3 1 3 0 0 Z " fill="#9D67B8" transform="translate(364,365)"/>
<path d="M0 0 C3.87249706 1.41779947 7.20748064 3.22984788 10.6875 5.4375 C12.11642578 6.33275391 12.11642578 6.33275391 13.57421875 7.24609375 C16 9 16 9 18 12 C14.00118212 11.38479725 11.19641774 9.39731331 8 7 C8 6.34 8 5.68 8 5 C6.35 4.67 4.7 4.34 3 4 C3 3.34 3 2.68 3 2 C2.01 2 1.02 2 0 2 C0 1.34 0 0.68 0 0 Z " fill="#B1699B" transform="translate(305,145)"/>
<path d="M0 0 C0.33 0.99 0.66 1.98 1 3 C1.66 3 2.32 3 3 3 C3.50567729 5.56149628 4.00470132 8.12399465 4.5 10.6875 C4.64308594 11.40873047 4.78617187 12.12996094 4.93359375 12.87304688 C5.65571887 16.63841359 6.1824976 20.14473813 6 24 C2.36733586 17.25362374 1.73159773 11.54508597 2 4 C1.34 4 0.68 4 0 4 C0 2.68 0 1.36 0 0 Z " fill="#A859A5" transform="translate(363,200)"/>
<path d="M0 0 C0.66 0.33 1.32 0.66 2 1 C-1.7935871 4.21880117 -5.65829477 6.6163187 -10 9 C-8.60064115 5.59635112 -7.12995268 4.09193812 -4 2.1875 C-3.29875 1.74792969 -2.5975 1.30835938 -1.875 0.85546875 C-1.25625 0.57316406 -0.6375 0.29085937 0 0 Z M-12 9 C-11.34 9.33 -10.68 9.66 -10 10 C-11.65 11.65 -13.3 13.3 -15 15 C-15.66 14.67 -16.32 14.34 -17 14 C-15.35 12.35 -13.7 10.7 -12 9 Z " fill="#B25B88" transform="translate(219,154)"/>
<path d="M0 0 C0.66 0.33 1.32 0.66 2 1 C-0.21748401 8.50533049 -0.21748401 8.50533049 -3 11 C-7.37855495 11.46913089 -9.29584707 11.46943529 -13 9 C-11.9275 9.0825 -10.855 9.165 -9.75 9.25 C-6.02992251 9.33749813 -6.02992251 9.33749813 -3.6875 7.3125 C-1.95720635 4.94135685 -0.92573227 2.77719681 0 0 Z " fill="#AC60A3" transform="translate(247,302)"/>
<path d="M0 0 C0.54527344 0.13277344 1.09054688 0.26554687 1.65234375 0.40234375 C7.09902987 1.67789247 12.43120352 2.46963843 18 3 C18 3.33 18 3.66 18 4 C15.7541395 4.30325122 13.5028531 4.56652522 11.25 4.8125 C9.99703125 4.96332031 8.7440625 5.11414063 7.453125 5.26953125 C4 5 4 5 1.546875 2.51171875 C1.03640625 1.68285156 0.5259375 0.85398437 0 0 Z " fill="#B46F96" transform="translate(105,289)"/>
<path d="M0 0 C0.66 0 1.32 0 2 0 C2.19517554 1.93674185 2.38087873 3.87444009 2.5625 5.8125 C2.66691406 6.89144531 2.77132812 7.97039062 2.87890625 9.08203125 C3 12 3 12 2 15 C-0.19219402 12.63310671 -0.9871902 11.48272731 -1.07421875 8.203125 C-0.88279297 6.74132812 -0.88279297 6.74132812 -0.6875 5.25 C-0.50767578 3.77273437 -0.50767578 3.77273437 -0.32421875 2.265625 C-0.21722656 1.51796875 -0.11023438 0.7703125 0 0 Z " fill="#AD5E97" transform="translate(233,236)"/>
<path d="M0 0 C7.66816143 -0.76681614 7.66816143 -0.76681614 10.93359375 1.11328125 C12.5625 2.5 12.5625 2.5 15 5 C10.80441263 6.39852912 8.95433149 4.77263136 5 3 C2.22111387 2.30859478 2.22111387 2.30859478 0 2 C0 1.34 0 0.68 0 0 Z " fill="#AE5F98" transform="translate(277,198)"/>
<path d="M0 0 C3.3 0 6.6 0 10 0 C10 0.33 10 0.66 10 1 C7.69 1.33 5.38 1.66 3 2 C2.67 3.98 2.34 5.96 2 8 C0.68 6.68 -0.64 5.36 -2 4 C-1.34 2.68 -0.68 1.36 0 0 Z " fill="#B35C99" transform="translate(193,275)"/>
<path d="M0 0 C-0.99 1.32 -1.98 2.64 -3 4 C-3.66 3.34 -4.32 2.68 -5 2 C-7.60386215 1.8328049 -7.60386215 1.8328049 -10.5 2 C-13.46875 2.125 -13.46875 2.125 -16 2 C-16.66 1.34 -17.32 0.68 -18 0 C-15.56288386 -0.19484938 -13.12562602 -0.38115178 -10.6875 -0.5625 C-9.99720703 -0.61857422 -9.30691406 -0.67464844 -8.59570312 -0.73242188 C-5.37487726 -0.96581505 -3.09672655 -1.03224218 0 0 Z " fill="#C25B8B" transform="translate(172,185)"/>
<path d="M0 0 C3.60236433 1.33802104 6.7314358 2.98857588 10 5 C11.32608822 5.68096422 12.65686601 6.35330586 14 7 C9.81863255 7.19448221 6.68250477 7.09007028 3 5 C1.1875 2.375 1.1875 2.375 0 0 Z " fill="#B26AA3" transform="translate(235,267)"/>
<path d="M0 0 C2.12508244 3.18762365 2.5020163 5.26512223 3 9 C0.37812506 7.95125002 -0.79371361 7.35068687 -2.25 4.875 C-2.4975 4.25625 -2.745 3.6375 -3 3 C-2.34 3 -1.68 3 -1 3 C-0.67 2.01 -0.34 1.02 0 0 Z " fill="#AB63A2" transform="translate(179,360)"/>
<path d="M0 0 C0.66 0.33 1.32 0.66 2 1 C-1.3 4.3 -4.6 7.6 -8 11 C-8 6.67750434 -5.85084926 5.11604454 -3 2 C-2.01 1.34 -1.02 0.68 0 0 Z " fill="#F2DBED" transform="translate(176,332)"/>
<path d="M0 0 C0.33 0 0.66 0 1 0 C3.28571429 8.42857143 3.28571429 8.42857143 3 13 C1.68 12.34 0.36 11.68 -1 11 C-0.67 7.37 -0.34 3.74 0 0 Z " fill="#CB6282" transform="translate(105,137)"/>
<path d="M0 0 C0.66 0.33 1.32 0.66 2 1 C-0.64 3.64 -3.28 6.28 -6 9 C-6.33 8.34 -6.66 7.68 -7 7 C-4.78071806 4.09197539 -3.07030857 2.04687238 0 0 Z " fill="#F8E3ED" transform="translate(104,242)"/>
<path d="M0 0 C2.76276177 0.52268466 5.3260876 1.10869587 8 2 C7.67 3.32 7.34 4.64 7 6 C3.63279613 4.60667426 2.0140476 3.0210714 0 0 Z " fill="#A3619E" transform="translate(178,381)"/>
<path d="M0 0 C1.32 0.33 2.64 0.66 4 1 C4 1.99 4 2.98 4 4 C5.32 4.66 6.64 5.32 8 6 C7.01 6.33 6.02 6.66 5 7 C3.29115995 5.37660195 1.62553283 3.70680947 0 2 C0 1.34 0 0.68 0 0 Z " fill="#AD5D90" transform="translate(296,141)"/>
<path d="M0 0 C0.66 0 1.32 0 2 0 C2.33 0.99 2.66 1.98 3 3 C0.03 5.475 0.03 5.475 -3 8 C-3 4.46136361 -2.14025012 3.67531265 0 1 C0 0.67 0 0.34 0 0 Z " fill="#9D58B9" transform="translate(378,338)"/>
<path d="M0 0 C0.66 0 1.32 0 2 0 C3.25664978 2.90600261 4 4.79604584 4 8 C3.34 8 2.68 8 2 8 C0.23537317 4.91190305 0 3.76687864 0 0 Z " fill="#B96C97" transform="translate(144,251)"/>
<path d="M0 0 C0.33 0 0.66 0 1 0 C0.51171875 6.0546875 0.51171875 6.0546875 0 8 C-0.99 8.66 -1.98 9.32 -3 10 C-2.69201674 8.51988629 -2.378482 7.04092675 -2.0625 5.5625 C-1.88847656 4.73878906 -1.71445312 3.91507813 -1.53515625 3.06640625 C-1 1 -1 1 0 0 Z " fill="#A459AA" transform="translate(368,246)"/>
<path d="M0 0 C1.32 0.66 2.64 1.32 4 2 C4 2.33 4 2.66 4 3 C0.04 3 -3.92 3 -8 3 C-8 2.67 -8 2.34 -8 2 C-5.36 2 -2.72 2 0 2 C0 1.34 0 0.68 0 0 Z " fill="#BC637E" transform="translate(125,121)"/>
</svg>
